<svg id="Camada_1" data-name="Camada 1" xmlns="http://www.w3.org/2000/svg" viewBox="0 0 74.85 39.1"><defs><style>.cls-1{fill:#6c3d7b;}.cls-2{fill:#c8732a;}</style></defs><title>Toti - Barra Principal</title><path class="cls-1" d="M74.85,32.79V19.24L70.63,20.7A5.65,5.65,0,0,0,66.82,26v6.75H53.54V16.18H61l2.77-5.95H53.54V2.77L45.51,0V32.79c0,3.5,3.64,6.31,8,6.31H66.82C71.26,39.1,74.85,36.29,74.85,32.79Z"/><circle class="cls-2" cx="70.97" cy="14.24" r="3.88"/><path class="cls-1" d="M31.8,8.91A15.09,15.09,0,0,0,18,30.15h7.5A8.79,8.79,0,1,1,31.8,32.8H11.2A3.17,3.17,0,0,1,8,29.63V16.18h7.46l2.84-5.95H8V2.77L0,0V32.79c0,3.5,3.64,6.31,8,6.31H31.8a15.08,15.08,0,0,0,13-7.37V16.28A15.05,15.05,0,0,0,31.8,8.91Z"/></svg>